<?xml version="1.0" encoding="UTF-8" standalone="no"?>
<!-- Created with Inkscape (http://www.inkscape.org/) -->

<svg
   xmlns:dc="http://purl.org/dc/elements/1.1/"
   xmlns:cc="http://creativecommons.org/ns#"
   xmlns:rdf="http://www.w3.org/1999/02/22-rdf-syntax-ns#"
   xmlns:svg="http://www.w3.org/2000/svg"
   xmlns="http://www.w3.org/2000/svg"
   xmlns:sodipodi="http://sodipodi.sourceforge.net/DTD/sodipodi-0.dtd"
   xmlns:inkscape="http://www.inkscape.org/namespaces/inkscape"
   width="210mm"
   height="297mm"
   viewBox="0 0 744.09448819 1052.3622047"
   id="svg2"
   version="1.1"
   inkscape:version="0.91 r13725"
   sodipodi:docname="profilo.svg">
  <defs
     id="defs4" />
  <sodipodi:namedview
     id="base"
     pagecolor="#ffffff"
     bordercolor="#666666"
     borderopacity="1.0"
     inkscape:pageopacity="0.0"
     inkscape:pageshadow="2"
     inkscape:zoom="0.35"
     inkscape:cx="-226.42857"
     inkscape:cy="520"
     inkscape:document-units="px"
     inkscape:current-layer="layer1"
     showgrid="false"
     inkscape:window-width="1855"
     inkscape:window-height="1056"
     inkscape:window-x="65"
     inkscape:window-y="24"
     inkscape:window-maximized="1" />
  <metadata
     id="metadata7">
    <rdf:RDF>
      <cc:Work
         rdf:about="">
        <dc:format>image/svg+xml</dc:format>
        <dc:type
           rdf:resource="http://purl.org/dc/dcmitype/StillImage" />
        <dc:title></dc:title>
      </cc:Work>
    </rdf:RDF>
  </metadata>
  <g
     inkscape:label="Layer 1"
     inkscape:groupmode="layer"
     id="layer1">
    <path
       style="fill:none;fill-rule:evenodd;stroke:#000000;stroke-width:1px;stroke-linecap:butt;stroke-linejoin:miter;stroke-opacity:1"
       d="m 108.57143,218.07649 c 3.80952,2.85714 8.06139,5.20425 11.42857,8.57143 1.42857,1.42857 -1.42857,7.14286 0,8.57143 0.67344,0.67343 2.18371,-0.67344 2.85714,0 0.003,0.003 -0.004,8.55848 0,8.57143 0.42592,1.27775 2.25481,1.65246 2.85715,2.85714 0.42591,0.85183 -0.42592,2.00531 0,2.85714 0.60233,1.20468 2.2548,1.65247 2.85714,2.85714 0.85183,1.70368 -1.34687,4.36742 0,5.71429 1.34687,1.34687 4.36741,-1.34687 5.71428,0 0.78178,0.78178 -0.77498,9.87861 0,11.42857 0.60234,1.20468 2.25481,1.65247 2.85715,2.85714 0.85183,1.70368 -1.34687,4.36742 0,5.71429 0.67343,0.67344 2.1837,-0.67343 2.85714,0 0.67344,0.67344 0,1.90476 0,2.85714 0,0.95238 0,1.90477 0,2.85715 0,0.95238 0.95238,2.85714 0,2.85714 -0.95238,0 -0.95238,-2.85714 0,-2.85714 0.95238,0 0,1.90476 0,2.85714 0,1.90476 0,3.80952 0,5.71428 0,0.95239 -0.67344,2.18371 0,2.85715 0.67344,0.67343 2.18371,-0.67344 2.85714,0 0.0919,0.0919 0,7.87849 0,8.57143 0,7.61904 0,15.23809 0,22.85714 0,1.49406 -0.37563,10.67731 0,11.42857 1.20468,2.40935 4.50961,3.30493 5.71429,5.71429 0.90124,1.80248 -0.90124,12.48323 0,14.28571 0.60234,1.20468 2.2548,1.65247 2.85714,2.85714 0.51662,1.03324 0,12.29846 0,14.28572 0,9.52381 0,19.04762 0,28.57143 0,0.69293 -0.0919,8.47954 0,8.57142 0.67344,0.67344 2.18371,-0.67343 2.85714,0 0.67344,0.67344 0,1.90477 0,2.85715 0,7.61905 0,15.23809 0,22.85714 0,0.95238 0,1.90476 0,2.85714 0,0.95238 -0.67343,2.18371 0,2.85715 0.67344,0.67343 2.18371,-0.67344 2.85715,0 0.67343,0.67343 -0.42592,2.0053 0,2.85714 0.60234,1.20468 2.2548,1.65246 2.85714,2.85714 0.85184,1.70367 -0.85184,4.01062 0,5.71429 0.60234,1.20467 2.2548,1.65246 2.85714,2.85714 0.98676,1.97352 -1.00291,13.2828 0,14.28571 0.67344,0.67344 2.18371,-0.67343 2.85715,0 1.34687,1.34687 -1.34687,4.36742 0,5.71429 0.67343,0.67344 2.1837,-0.67343 2.85714,0 1.34687,1.34687 -0.85184,4.01062 0,5.71429 0.60234,1.20467 2.11003,1.73648 2.85714,2.85714 1.18128,1.77192 1.90476,3.80952 2.85714,5.71428 0.95239,1.90477 2.18371,3.69399 2.85715,5.71429 0.30117,0.90351 -0.42592,2.00531 0,2.85714 0.60234,1.20468 2.2548,1.65247 2.85714,2.85715 0.42592,0.85183 -0.42592,2.0053 0,2.85714 0.60234,1.20468 2.2548,1.65246 2.85714,2.85714 0.85184,1.70367 -1.34687,4.36742 0,5.71429 0.67344,0.67343 2.18371,-0.67344 2.85715,0 0.67343,0.67343 -0.42592,2.00531 0,2.85714 0.60233,1.20468 2.2548,1.65247 2.85714,2.85714 0.85183,1.70367 -1.34687,4.36742 0,5.71429 1.34687,1.34687 4.36741,-1.34687 5.71428,0 0.67344,0.67343 -0.42591,2.00531 0,2.85714 0.60234,1.20468 2.25481,1.65247 2.85715,2.85714 0.42591,0.85184 -0.42592,2.00531 0,2.85715 1.20467,2.40935 4.50961,3.30493 5.71428,5.71428 0.85184,1.70367 -1.34687,4.36742 0,5.71429 0.67344,0.67343 2.18371,-0.67344 2.85715,0 1.34687,1.34687 -0.85184,4.01061 0,5.71428 0.60233,1.20468 2.11003,1.73648 2.85714,2.85715 1.18128,1.77192 2.18371,3.69398 2.85714,5.71428 0.30117,0.90351 -0.52828,2.06472 0,2.85715 1.49422,2.24132 4.09804,3.55929 5.71429,5.71428 1.27775,1.70367 1.67586,3.94236 2.85714,5.71429 0.74711,1.12066 1.90476,1.90476 2.85714,2.85714 0.95238,0.95238 1.73648,2.11003 2.85715,2.85714 1.77192,1.18129 4.01061,1.57939 5.71428,2.85715 3.52056,2.64042 7.79125,9.00369 11.42857,11.42857 1.77193,1.18128 4.20844,1.35129 5.71429,2.85714 1.50585,1.50585 1.67586,3.94236 2.85714,5.71429 1.49422,2.24132 4.50961,3.30493 5.71429,5.71428 0.42591,0.85184 -0.67344,2.18371 0,2.85714 0.67343,0.67344 2.1837,-0.67343 2.85714,0 0.67344,0.67344 -0.67344,2.18371 0,2.85715 0.67344,0.67343 2.18371,-0.67344 2.85714,0 0.67344,0.67343 -0.67343,2.18371 0,2.85714 0.67344,0.67344 2.18371,-0.67343 2.85715,0 0.67343,0.67344 -0.67344,2.18371 0,2.85714 0.67343,0.67344 2.1837,-0.67343 2.85714,0 0.67343,0.67344 -0.67344,2.18371 0,2.85715 0.67343,0.67343 2.18371,-0.67344 2.85714,0 1.90099,1.90099 -1.90099,3.81329 0,5.71428 5.91153,5.91153 -0.23108,-9.0336 5.71429,2.85714 0.42591,0.85184 -0.67344,2.18371 0,2.85715 0.67343,0.67343 2.1837,-0.67344 2.85714,0 0.67344,0.67343 0,1.90476 0,2.85714 0,1.90476 -0.85184,4.01062 0,5.71429 0.42592,0.85183 2.18371,-0.67344 2.85714,0 0.67344,0.67343 -0.42591,2.0053 0,2.85714 0.60234,1.20468 2.25481,1.65246 2.85715,2.85714 0.85183,1.70367 -0.85184,4.01062 0,5.71429 5.94537,11.89074 -0.19725,-3.05439 5.71428,2.85714 1.34687,1.34687 -1.34687,4.36742 0,5.71429 0.67344,0.67343 2.18371,-0.67344 2.85714,0 0.67344,0.67343 0,1.90476 0,2.85714 0.95239,0 2.00531,-0.42592 2.85715,0 11.89074,5.94537 -3.05439,-0.19725 2.85714,5.71428 5.91153,5.91153 -0.23109,-9.0336 5.71429,2.85715 0.42591,0.85183 -0.67344,2.18371 0,2.85714 1.50584,1.50585 4.20843,1.3513 5.71428,2.85714 0.67344,0.67344 -0.67343,2.18371 0,2.85715 0.67344,0.67343 1.90476,0 2.85714,0 0,0.95238 -0.67343,2.1837 0,2.85714 1.50585,1.50585 4.20844,1.3513 5.71429,2.85714 0.67344,0.67344 -0.67344,2.18371 0,2.85714 5.91153,5.91153 -0.23109,-9.0336 5.71429,2.85715 0,7.61905 -0.95239,-0.95238 2.85714,2.85714 0.67343,0.67344 -0.67344,2.18371 0,2.85714 1.88235,1.88236 3.83193,-1.88235 5.71428,0 0.67344,0.67344 -0.42591,2.00531 0,2.85715 5.94538,11.89074 -0.19724,-3.05439 5.71429,2.85714 0.67344,0.67343 -0.42592,2.00531 0,2.85714 1.20468,2.40936 4.50961,3.30493 5.71429,5.71429 0.42591,0.85183 -0.42592,2.00531 0,2.85714 0.60233,1.20468 2.2548,1.65247 2.85714,2.85714 0.42592,0.85184 -0.42592,2.00531 0,2.85715 0.60234,1.20467 1.65246,2.2548 2.85714,2.85714 0.85184,0.42592 2.43123,-0.85184 2.85714,0 0.85184,1.70367 -0.85183,4.01061 0,5.71428 0.42592,0.85184 2.18371,-0.67343 2.85715,0 0.67343,0.67344 -0.67344,2.18371 0,2.85715 0.67343,0.67343 1.90476,0 2.85714,0 0,0.95238 -0.42592,2.00531 0,2.85714 0.3793,0.7586 7.81283,8.19213 8.57143,8.57143 0.85183,0.42592 2.00531,-0.42592 2.85714,0 1.20468,0.60234 1.73648,2.11003 2.85714,2.85714 1.77193,1.18129 4.20844,1.3513 5.71429,2.85714 0.67344,0.67344 -0.67344,2.18371 0,2.85715 0.67344,0.67343 2.00531,-0.42592 2.85714,0 1.20468,0.60234 1.90476,1.90476 2.85715,2.85714 0.95238,0.95238 2.2548,1.65247 2.85714,2.85714 0.42592,0.85184 -0.42592,2.00531 0,2.85715 3.15865,6.3173 1.77326,0.88663 5.71428,2.85714 1.20468,0.60234 1.73648,2.11003 2.85715,2.85714 1.77192,1.18129 4.20844,1.3513 5.71428,2.85714 0.67344,0.67344 -0.67343,2.18371 0,2.85715 0.67344,0.67343 2.00531,-0.42592 2.85715,0 11.89074,5.94537 -3.05439,-0.19725 2.85714,5.71428 0.67343,0.67344 2.18371,-0.67343 2.85714,0 0.67344,0.67344 -0.67343,2.18371 0,2.85715 1.42857,1.42857 7.14286,-1.42858 8.57143,0 0.67344,0.67343 -0.67344,2.1837 0,2.85714 0.67344,0.67343 2.00531,-0.42592 2.85714,0 1.20468,0.60234 1.65247,2.2548 2.85715,2.85714 1.03323,0.51662 12.29845,0 14.28571,0 0.95238,0 1.90476,0 2.85714,0 0.95238,0 2.18371,-0.67343 2.85715,0 0.67343,0.67344 0,1.90476 0,2.85714"
       id="path3336"
       inkscape:connector-curvature="0" />
    <path
       style="fill:none;fill-rule:evenodd;stroke:#000000;stroke-width:1px;stroke-linecap:butt;stroke-linejoin:miter;stroke-opacity:1"
       d="m 274.28571,340.93363 c -20,0 -40,0 -60,0 -1.98725,0 -13.25247,-0.51662 -14.28571,0 -1.20468,0.60234 -1.65247,2.25481 -2.85714,2.85715 -1.13284,0.56641 -7.98733,-0.58411 -8.57143,0 -0.67344,0.67343 0.67343,2.1837 0,2.85714 -1.42857,1.42857 -7.14286,-1.42857 -8.57143,0 -0.67344,0.67343 0.67344,2.18371 0,2.85714 -0.68752,0.68752 -10.74105,-0.68752 -11.42857,0 -0.67344,0.67344 0.67343,2.18371 0,2.85714 -1.34687,1.34687 -4.01062,-0.85183 -5.71429,0 -1.20467,0.60234 -1.65246,2.25481 -2.85714,2.85715 -0.86953,0.43476 -7.28469,0 -8.57143,0 -6.66667,0 -13.33333,0 -20,0"
       id="path3338"
       inkscape:connector-curvature="0" />
    <path
       style="fill:none;fill-rule:evenodd;stroke:#000000;stroke-width:1px;stroke-linecap:butt;stroke-linejoin:miter;stroke-opacity:1"
       d="m 702.85714,320.93363 c -6.62049,0.13332 -5.2859,14.07152 -11.42857,17.14286 -1.70367,0.85184 -4.01061,-0.85183 -5.71428,0 -1.20468,0.60234 -1.65247,2.2548 -2.85715,2.85714 -0.85183,0.42592 -2.0053,-0.42591 -2.85714,0 -1.20468,0.60234 -1.65247,2.25481 -2.85714,2.85715 -0.85184,0.42591 -2.00531,-0.42592 -2.85715,0 -1.20467,0.60233 -1.65246,2.2548 -2.85714,2.85714 -0.85183,0.42592 -2.00531,-0.42592 -2.85714,0 -1.20468,0.60234 -1.65247,2.2548 -2.85714,2.85714 -1.70368,0.85184 -3.90727,-0.60234 -5.71429,0 -11.9536,-5.17387 -3.30493,4.50961 -5.71429,5.71429 -2.28571,1.14285 -6.28571,-1.14286 -8.57142,0 -1.20468,0.60234 -1.65247,2.2548 -2.85715,2.85714 -1.79577,0.89789 -9.63279,-0.89789 -11.42857,0 -1.20468,0.60234 -1.65246,2.2548 -2.85714,2.85714 -1.22024,0.61012 -13.15625,0 -14.28572,0 -12.38095,0 -24.7619,0 -37.14285,0 -7.61905,0 -15.2381,0 -22.85715,0 -1.28673,0 -7.7019,0.43477 -8.57142,0 -1.20468,-0.60234 -1.65247,-2.2548 -2.85715,-2.85714 -0.85183,-0.42592 -2.0053,0.42592 -2.85714,0 -1.20468,-0.60234 -1.65247,-2.2548 -2.85714,-2.85714 -0.85184,-0.42592 -2.18371,0.67343 -2.85715,0 -1.34687,-1.34687 1.34687,-4.36742 0,-5.71429 -0.67343,-0.67343 -2.1837,0.67344 -2.85714,0 -0.67343,-0.67343 0.67344,-2.18371 0,-2.85714 -1.34687,-1.34687 -4.01061,0.85183 -5.71428,0 -1.20468,-0.60234 -1.65247,-2.25481 -2.85715,-2.85714 -1.13283,-0.56642 -7.98732,0.5841 -8.57143,0 -0.67343,-0.67344 0,-1.90477 0,-2.85715"
       id="path3340"
       inkscape:connector-curvature="0" />
    <path
       style="fill:none;fill-rule:evenodd;stroke:#000000;stroke-width:1px;stroke-linecap:butt;stroke-linejoin:miter;stroke-opacity:1"
       d="m 260,343.79078 c -3.80952,0 -7.67088,-0.62629 -11.42857,0 -2.10061,0.3501 -3.80953,1.90476 -5.71429,2.85714 -1.90476,0.95238 -3.94236,1.67586 -5.71428,2.85714 -2.24133,1.49422 -3.30493,4.50961 -5.71429,5.71429 -0.86952,0.43476 -7.28469,0 -8.57143,0 -6.66666,0 -13.33333,0 -20,0 -22.85714,0 -45.71428,0 -68.57143,0 -1.34713,0 -14.15622,0.12949 -14.28571,0 -1.34687,-1.34687 1.34687,-4.36742 0,-5.71429 -3.80952,-3.80952 -2.85714,4.76191 -2.85714,-2.85714"
       id="path3342"
       inkscape:connector-curvature="0" />
  </g>
</svg>
